<svg xmlns="http://www.w3.org/2000/svg" width="89.405" height="98" viewBox="0 0 89.405 98"><defs><style>.a{fill:rgba(0,0,0,0);}.a,.b{stroke:#277903;stroke-linecap:round;stroke-linejoin:round;stroke-width:3px;}.b{fill:none;}</style></defs><g transform="translate(-3.5 -2)"><path class="a" d="M64.119,32H91.4V61.56H5V32H32.286v2.274a10.687,10.687,0,0,0,1.774,5.48,16.735,16.735,0,0,0,28.286,0,10.687,10.687,0,0,0,1.774-5.48Z" transform="translate(0 36.94)"/><path class="a" d="M30,16H50.464l9.1,36.381H34.548" transform="translate(31.845 16.56)"/><path class="a" d="M32.286,52.381H5L14.1,16H34.56" transform="translate(0 16.56)"/><line class="b" y1="63" transform="translate(48 3.5)"/><path class="a" d="M20,26l9.1,11.369L38.19,26" transform="translate(19.107 29.298)"/></g></svg>