<svg xmlns="http://www.w3.org/2000/svg" width="90" height="89.961" viewBox="0 0 90 89.961"><defs><style>.a{fill:#277903;}</style></defs><path class="a" d="M21.319,3a1.666,1.666,0,0,0-1.64,1.692V9.664H4.666A1.666,1.666,0,0,0,3,11.33V26.323H6.332V13H19.679v3.638a5,5,0,1,0,3.332,0V13H72.989v3.638a5,5,0,1,0,3.332,0V13H89.668V26.323H93V11.33a1.666,1.666,0,0,0-1.666-1.666H76.321V4.692a1.666,1.666,0,1,0-3.332,0V9.664H23.011V4.692A1.666,1.666,0,0,0,21.319,3Zm-.156,16.692a1.666,1.666,0,0,0,.358,0,1.624,1.624,0,0,1,1.49,1.633,1.666,1.666,0,1,1-3.332,0A1.625,1.625,0,0,1,21.163,19.692Zm53.31,0a1.666,1.666,0,0,0,.358,0,1.624,1.624,0,0,1,1.49,1.633,1.666,1.666,0,1,1-3.332,0A1.625,1.625,0,0,1,74.473,19.692ZM4.685,29.655A1.666,1.666,0,0,0,3.02,31.321V91.3a1.666,1.666,0,0,0,1.666,1.666H91.315A1.666,1.666,0,0,0,92.981,91.3V31.321a1.666,1.666,0,0,0-1.666-1.666Zm1.666,3.332h83.3V89.629H6.351ZM38,36.319a1.666,1.666,0,0,0-1.666,1.666v6.664A1.666,1.666,0,0,0,38,46.315h6.664a1.666,1.666,0,0,0,1.666-1.666V37.985a1.666,1.666,0,0,0-1.666-1.666Zm13.328,0a1.666,1.666,0,0,0-1.666,1.666v6.664a1.666,1.666,0,0,0,1.666,1.666H58a1.666,1.666,0,0,0,1.666-1.666V37.985A1.666,1.666,0,0,0,58,36.319Zm13.328,0a1.666,1.666,0,0,0-1.666,1.666v6.664a1.666,1.666,0,0,0,1.666,1.666h6.664a1.666,1.666,0,0,0,1.666-1.666V37.985a1.666,1.666,0,0,0-1.666-1.666Zm13.328,0a1.666,1.666,0,0,0-1.666,1.666v6.664a1.666,1.666,0,0,0,1.666,1.666h6.664a1.666,1.666,0,0,0,1.666-1.666V37.985a1.666,1.666,0,0,0-1.666-1.666ZM31.3,38.6a1.666,1.666,0,0,0-1.146.494L26.9,42.306l-1.041-1.028a1.666,1.666,0,1,0-2.343,2.369l2.213,2.186a1.666,1.666,0,0,0,2.343,0l4.419-4.373A1.666,1.666,0,0,0,31.3,38.6Zm-18.28,1.054v3.332h3.332V39.651Zm26.655,0H43v3.332H39.67Zm13.328,0H56.33v3.332H53Zm13.328,0h3.332v3.332H66.326Zm13.328,0h3.332v3.332H79.653Zm-68.3,10a1.666,1.666,0,0,0-1.666,1.666v6.664a1.666,1.666,0,0,0,1.666,1.666h6.664a1.666,1.666,0,0,0,1.666-1.666V51.313a1.666,1.666,0,0,0-1.666-1.666Zm13.328,0a1.666,1.666,0,0,0-1.666,1.666v6.664a1.666,1.666,0,0,0,1.666,1.666h6.664a1.666,1.666,0,0,0,1.666-1.666V51.313a1.666,1.666,0,0,0-1.666-1.666Zm13.328,0a1.666,1.666,0,0,0-1.666,1.666v6.664A1.666,1.666,0,0,0,38,59.642h6.664a1.666,1.666,0,0,0,1.666-1.666V51.313a1.666,1.666,0,0,0-1.666-1.666Zm13.328,0a1.666,1.666,0,0,0-1.666,1.666v6.664a1.666,1.666,0,0,0,1.666,1.666H58a1.666,1.666,0,0,0,1.666-1.666V51.313A1.666,1.666,0,0,0,58,49.647Zm26.655,0a1.666,1.666,0,0,0-1.666,1.666v6.664a1.666,1.666,0,0,0,1.666,1.666h6.664a1.666,1.666,0,0,0,1.666-1.666V51.313a1.666,1.666,0,0,0-1.666-1.666Zm-6.7,2.278a1.666,1.666,0,0,0-1.145.494l-3.254,3.215-1.041-1.028A1.666,1.666,0,1,0,63.5,56.974l2.213,2.186a1.666,1.666,0,0,0,2.343,0l4.425-4.373a1.666,1.666,0,0,0-1.2-2.863ZM13.015,52.978h3.332V56.31H13.015Zm13.328,0h3.332V56.31H26.343Zm13.328,0H43V56.31H39.67Zm13.328,0H56.33V56.31H53Zm26.655,0h3.332V56.31H79.653Zm-68.3,10A1.666,1.666,0,0,0,9.683,64.64V71.3a1.666,1.666,0,0,0,1.666,1.666h6.664A1.666,1.666,0,0,0,19.679,71.3V64.64a1.666,1.666,0,0,0-1.666-1.666Zm13.328,0a1.666,1.666,0,0,0-1.666,1.666V71.3a1.666,1.666,0,0,0,1.666,1.666h6.664A1.666,1.666,0,0,0,33.007,71.3V64.64a1.666,1.666,0,0,0-1.666-1.666Zm26.655,0a1.666,1.666,0,0,0-1.666,1.666V71.3a1.666,1.666,0,0,0,1.666,1.666H58A1.666,1.666,0,0,0,59.662,71.3V64.64A1.666,1.666,0,0,0,58,62.974Zm13.328,0a1.666,1.666,0,0,0-1.666,1.666V71.3a1.666,1.666,0,0,0,1.666,1.666h6.664A1.666,1.666,0,0,0,72.989,71.3V64.64a1.666,1.666,0,0,0-1.666-1.666Zm13.328,0a1.666,1.666,0,0,0-1.666,1.666V71.3a1.666,1.666,0,0,0,1.666,1.666h6.664A1.666,1.666,0,0,0,86.317,71.3V64.64a1.666,1.666,0,0,0-1.666-1.666ZM44.629,65.245a1.666,1.666,0,0,0-1.152.495L40.23,68.961l-1.041-1.028A1.666,1.666,0,1,0,36.846,70.3l2.213,2.186a1.666,1.666,0,0,0,2.343,0l4.419-4.38a1.666,1.666,0,0,0-1.191-2.863ZM13.015,66.306h3.332v3.332H13.015Zm13.328,0h3.332v3.332H26.343Zm26.655,0H56.33v3.332H53Zm13.328,0h3.332v3.332H66.326Zm13.328,0h3.332v3.332H79.653Zm-68.3,10a1.666,1.666,0,0,0-1.666,1.666v6.664A1.666,1.666,0,0,0,11.349,86.3h6.664a1.666,1.666,0,0,0,1.666-1.666V77.968A1.666,1.666,0,0,0,18.013,76.3Zm13.328,0a1.666,1.666,0,0,0-1.666,1.666v6.664A1.666,1.666,0,0,0,24.677,86.3h6.664a1.666,1.666,0,0,0,1.666-1.666V77.968A1.666,1.666,0,0,0,31.341,76.3ZM13.015,79.634h3.332v3.332H13.015Zm13.328,0h3.332v3.332H26.343Zm13.328,0v3.332H43V79.634Zm13.328,0v3.332H56.33V79.634Zm13.328,0v3.332h3.332V79.634Zm13.328,0v3.332h3.332V79.634Z" transform="translate(-3 -3)"/></svg>