<svg xmlns="http://www.w3.org/2000/svg" width="88.685" height="96.291" viewBox="0 0 88.685 96.291"><defs><style>.a{fill:none;stroke:#277903;stroke-linecap:round;stroke-linejoin:round;stroke-width:3px;}</style></defs><g transform="translate(0.543 1.004)"><path class="a" d="M12,15.5c0,13.294,13.7,26.186,30.214,26.186" transform="translate(31.8 45.437)"/><path class="a" d="M5.508,35.686A25.623,25.623,0,0,1,30.485,9.5h1.209c14.5,0,26.186,8.46,26.186,24.171" transform="translate(12.106 27.266)"/><path class="a" d="M62.914,7.76A58.237,58.237,0,0,0,4.5,8.969" transform="translate(9.086 0)"/><path class="a" d="M86.1,25.657C78.849,12.766,62.734,3.5,43.8,3.5S8.751,12.766,1.5,25.657" transform="translate(0 9.094)"/><path class="a" d="M5.5,16A43.087,43.087,0,0,0,18.391,46.214" transform="translate(12.114 46.952)"/><path class="a" d="M47.217,74.986C34.729,68.137,26.671,58.469,26.671,44.771a13.493,13.493,0,0,1,12.891-14.1h1.209a13.493,13.493,0,0,1,14.1,12.891v1.209a12.086,12.086,0,0,0,24.171,0A37.486,37.486,0,0,0,41.98,6.5H40.771C19.823,6.5,2.5,20.6,2.5,42.757A45.205,45.205,0,0,0,6.529,58.871" transform="translate(3.029 18.18)"/></g></svg>