<svg xmlns="http://www.w3.org/2000/svg" width="85" height="85" viewBox="0 0 85 85"><defs><style>.a{fill:#277903;}</style></defs><g transform="translate(-1 -1)"><path class="a" d="M86,34.646V9.854H71.833V1H68.292V9.854H18.708V1H15.167V9.854H1V86H86ZM4.542,13.4H15.167V22.25h3.542V13.4H68.292V22.25h3.542V13.4H82.458V31.1H4.542Zm0,69.063V34.646H82.458V82.458Z"/><path class="a" d="M6,59.417H73.292V24H6ZM9.542,48.792h7.083v7.083H9.542ZM59.125,45.25H52.042V38.167h7.083Zm3.542-7.083H69.75V45.25H62.667ZM30.792,48.792h7.083v7.083H30.792ZM27.25,55.875H20.167V48.792H27.25ZM37.875,45.25H30.792V38.167h7.083Zm3.542-7.083H48.5V45.25H41.417Zm0,10.625H48.5v7.083H41.417Zm10.625,0h7.083v7.083H52.042Zm0-14.167V27.542h7.083v7.083Zm-3.542,0H41.417V27.542H48.5Zm-10.625,0H30.792V27.542h7.083Zm-10.625,0H20.167V27.542H27.25Zm0,3.542V45.25H20.167V38.167ZM16.625,45.25H9.542V38.167h7.083ZM62.667,55.875V48.792H69.75v7.083Zm7.083-21.25H62.667V27.542H69.75ZM16.625,27.542v7.083H9.542V27.542Z" transform="translate(3.854 17.729)"/></g></svg>