<svg xmlns="http://www.w3.org/2000/svg" width="89.5" height="89.5" viewBox="0 0 89.5 89.5"><defs><style>.a{fill:#277903;}</style></defs><g transform="translate(-1 -1)"><path class="a" d="M45.75,90.5A44.75,44.75,0,0,1,1,45.75a2.983,2.983,0,1,1,5.967,0A38.783,38.783,0,1,0,18.035,18.6a2.983,2.983,0,0,1-5.1-2.088V6.967a2.983,2.983,0,1,1,5.967,0V9.95A44.3,44.3,0,0,1,45.75,1a44.75,44.75,0,1,1,0,89.5Z" transform="translate(0 0)"/><path class="a" d="M32.883,27.9H17.967V21.933H32.883a2.983,2.983,0,1,0,0-5.967H26.917V12.983a2.983,2.983,0,0,0-5.967,0v2.983H14.983A2.983,2.983,0,0,0,12,18.95V30.883a2.983,2.983,0,0,0,2.983,2.983H29.9v5.967H14.983a2.983,2.983,0,1,0,0,5.967H20.95v2.983a2.983,2.983,0,0,0,5.967,0V45.8h5.967a2.983,2.983,0,0,0,2.983-2.983V30.883A2.983,2.983,0,0,0,32.883,27.9Z" transform="translate(21.817 17.85)"/></g></svg>