<svg xmlns="http://www.w3.org/2000/svg" width="88.667" height="85.806" viewBox="0 0 88.667 85.806"><defs><style>.a{fill:#277903;}</style></defs><g transform="translate(-1.833 -1.833)"><g transform="translate(1.833 1.833)"><path class="a" d="M76.342,32.219a1.517,1.517,0,0,0-1.584-.225,1.428,1.428,0,0,0-.867,1.3l-.01,3.78a22.46,22.46,0,0,0-4.509,1.144A29.011,29.011,0,0,0,76.335,22.73l5.3-.017a1.482,1.482,0,0,0,1.332-.819,1.393,1.393,0,0,0-.191-1.515L67.585,2.36a1.509,1.509,0,0,0-2.289,0L50.03,20.436a1.393,1.393,0,0,0-.191,1.518,1.482,1.482,0,0,0,1.336.817h0l4.794-.01a25.976,25.976,0,0,1-6.5,13.882,14.655,14.655,0,0,0-3.3-3.321V7.439a5.709,5.709,0,0,0-5.793-5.606H7.626A5.709,5.709,0,0,0,1.833,7.439V82.033a5.709,5.709,0,0,0,5.793,5.606H40.375a5.709,5.709,0,0,0,5.793-5.606V56.148a14.656,14.656,0,0,0,3.3-3.319,25.976,25.976,0,0,1,6.5,13.882l-4.794-.01h0a1.482,1.482,0,0,0-1.336.817,1.393,1.393,0,0,0,.191,1.518L65.3,87.113a1.509,1.509,0,0,0,2.289,0L82.781,69.093a1.393,1.393,0,0,0,.19-1.517,1.482,1.482,0,0,0-1.335-.817l-5.3-.011a29.1,29.1,0,0,0-4.974-12.961,19.217,19.217,0,0,1,2.5-.6l-.01,3.263a1.428,1.428,0,0,0,.867,1.306,1.517,1.517,0,0,0,1.587-.228L90,45.912a1.4,1.4,0,0,0,0-2.152ZM59.094,21.439a1.4,1.4,0,0,0-.389-1.085,1.5,1.5,0,0,0-1.089-.458H54.3L66.442,5.524l12.09,14.328L75,19.861a1.459,1.459,0,0,0-1.478,1.317A25.6,25.6,0,0,1,56.786,43.388a23.233,23.233,0,0,1-4.722,1.131,13.812,13.812,0,0,0-1.11-5.241,28.832,28.832,0,0,0,8.14-17.839ZM43.212,82.033a2.8,2.8,0,0,1-2.837,2.746H7.626a2.8,2.8,0,0,1-2.837-2.746V7.439A2.8,2.8,0,0,1,7.626,4.694H40.375a2.8,2.8,0,0,1,2.837,2.746v24.2a15.093,15.093,0,0,0-17.6,4.316,13.938,13.938,0,0,0,0,17.565,15.093,15.093,0,0,0,17.6,4.316ZM37.3,56.177a11.447,11.447,0,1,1,0-22.881,11.447,11.447,0,1,1,0,22.881ZM75,69.605l3.535.014L66.442,83.948,54.3,69.57h3.319a1.5,1.5,0,0,0,1.089-.458,1.4,1.4,0,0,0,.389-1.085,28.832,28.832,0,0,0-8.137-17.845,13.85,13.85,0,0,0,.851-2.766,26.213,26.213,0,0,0,5.431-1.167A25.614,25.614,0,0,1,73.527,68.288,1.459,1.459,0,0,0,75,69.605Zm1.815-16.319V51.561a1.409,1.409,0,0,0-.477-1.057,1.474,1.474,0,0,0-1.128-.372,22.481,22.481,0,0,0-5.731,1.256,27.891,27.891,0,0,0-6.563-5.562,19.391,19.391,0,0,1,12.561-6.058,1.45,1.45,0,0,0,1.354-1.42V36.434l9.941,8.4Z" transform="translate(-1.833 -1.833)"/><path class="a" d="M24.751,24.89V23.834H22.917V24.89a2.633,2.633,0,0,0-1.833,2.5v.222a2.642,2.642,0,0,0,2.639,2.639h.222a.808.808,0,0,1,.806.806v.222a.808.808,0,0,1-.806.806h-.222a.808.808,0,0,1-.806-.806v-.111H21.084v.111a2.633,2.633,0,0,0,1.833,2.5v1.056h1.833V33.779a2.633,2.633,0,0,0,1.833-2.5v-.222a2.642,2.642,0,0,0-2.639-2.639h-.222a.808.808,0,0,1-.806-.806V27.39a.808.808,0,0,1,.806-.806h.222a.808.808,0,0,1,.806.806V27.5h1.833V27.39a2.633,2.633,0,0,0-1.833-2.5Z" transform="translate(11.259 13.568)"/><rect class="a" width="9.167" height="1.833" transform="translate(15.9 3.667)"/><path class="a" d="M15.584,44a4.583,4.583,0,1,0,4.583,4.583A4.583,4.583,0,0,0,15.584,44Zm0,7.334a2.75,2.75,0,1,1,2.75-2.75,2.75,2.75,0,0,1-2.75,2.75Z" transform="translate(4.9 28.97)"/></g></g></svg>